<svg width="14" height="14" viewBox="0 0 14 14" fill="none" xmlns="http://www.w3.org/2000/svg">
<g clip-path="url(#clip0_2606_6055)">
<path fill-rule="evenodd" clip-rule="evenodd" d="M8.23713 0.574675C8.38454 0.483572 8.56861 0.47529 8.72361 0.552787C10.876 1.629 12.0688 3.50609 12.7209 5.33183C13.3718 7.15452 13.5 8.96667 13.5 10C13.5 10.1326 13.4473 10.2598 13.3536 10.3536C13.2598 10.4473 13.1326 10.5 13 10.5H10V12.5C10 13.0523 9.55228 13.5 9 13.5C8.44772 13.5 8 13.0523 8 12.5V10V9V1C8 0.826712 8.08973 0.665778 8.23713 0.574675ZM2 1.25C2 0.835786 1.66421 0.5 1.25 0.5C0.835786 0.5 0.5 0.835786 0.5 1.25V3.75C0.5 5.05622 1.33481 6.16746 2.5 6.57929V12.5C2.5 13.0523 2.94772 13.5 3.5 13.5C4.05228 13.5 4.5 13.0523 4.5 12.5V6.57929C5.66519 6.16746 6.5 5.05622 6.5 3.75V1.25C6.5 0.835786 6.16421 0.5 5.75 0.5C5.33579 0.5 5 0.835786 5 1.25V3.75C5 4.30521 4.69835 4.78997 4.25 5.04933V1.25C4.25 0.835786 3.91421 0.5 3.5 0.5C3.08579 0.5 2.75 0.835786 2.75 1.25V5.04933C2.30165 4.78997 2 4.30521 2 3.75V1.25Z" fill="url(#paint0_linear_2606_6055)"/>
</g>
<defs>
<linearGradient id="paint0_linear_2606_6055" x1="14.627" y1="16.253" x2="-2.908" y2="3.798" gradientUnits="userSpaceOnUse">
<stop stop-color="#FFD600"/>
<stop offset="1" stop-color="#FF007A"/>
</linearGradient>
<clipPath id="clip0_2606_6055">
<rect width="14" height="14" fill="white"/>
</clipPath>
</defs>
</svg>
